<svg xmlns="http://www.w3.org/2000/svg" viewBox="0 0 256 256" width="32" height="32" aria-hidden="true" role="img" preserveAspectRatio="xMidYMid meet">
  <defs>
    <linearGradient id="menorahGradient1" x1="0%" y1="0%" x2="100%" y2="100%">
      <stop offset="0%" stop-color="#FFD700" />
      <stop offset="100%" stop-color="#FFA500" />
    </linearGradient>
    <linearGradient id="menorahGradient2" x1="0%" y1="0%" x2="100%" y2="100%">
      <stop offset="0%" stop-color="#FFFFFF" />
      <stop offset="100%" stop-color="#B0C4DE" />
    </linearGradient>
  </defs>
  <path fill="url(#menorahGradient1)" d="M128 20c6 0 10 4 10 10v80h30v-80c0-6 4-10 10-10s10 4 10 10v80h30v-80c0-6 4-10 10-10s10 4 10 10v90c0 5-4 10-10 10H20c-6 0-10-5-10-10v-90c0-6 4-10 10-10s10 4 10 10v80h30v-80c0-6 4-10 10-10s10 4 10 10v80h30v-80c0-6 4-10 10-10z"/>
  <path fill="url(#menorahGradient2)" d="M118 128h20v100h30v20H88v-20h30z"/>
</svg>
